<svg viewBox="0 0 36 36" xmlns="http://www.w3.org/2000/svg">
  <defs>
    <style>.cls-1 {
      fill: #d6dbe1;
    }

    .cls-2 {
      fill: #322f56;
    }

    .cls-3 {
      fill: #66f;
    }</style>
  </defs>
  <title/>
  <g id="smile">
    <path class="cls-1"
          d="M6,18A15,15,0,0,1,19.5,3.08,14.76,14.76,0,0,0,18,3a15,15,0,0,0,0,30,14.76,14.76,0,0,0,1.5-.08A15,15,0,0,1,6,18Z"/>
    <path class="cls-2" d="M18,34A16,16,0,1,1,34,18,16,16,0,0,1,18,34ZM18,4A14,14,0,1,0,32,18,14,14,0,0,0,18,4Z"/>
    <path class="cls-2"
          d="M23.49,21.13a1,1,0,0,0-1.36.38,4.72,4.72,0,0,1-8.26,0,1,1,0,1,0-1.74,1A6.63,6.63,0,0,0,18,25.94h0a6.63,6.63,0,0,0,5.87-3.45A1,1,0,0,0,23.49,21.13Z"/>
    <circle class="cls-3" cx="23" cy="14" r="2"/>
    <circle class="cls-3" cx="13" cy="14" r="2"/>
  </g>
</svg>
