<svg xmlns="http://www.w3.org/2000/svg" viewBox="0 0 36 36">
  <defs>
    <style>.cls-1 {
      fill: #d6dbe1;
    }

    .cls-2 {
      fill: #322f56;
    }

    .cls-3 {
      fill: #66f;
    }</style>
  </defs>
  <title/>
  <g id="mouthless">
    <path class="cls-1"
          d="M6,18A15,15,0,0,1,19.5,3.08,14.76,14.76,0,0,0,18,3a15,15,0,0,0,0,30,14.76,14.76,0,0,0,1.5-.08A15,15,0,0,1,6,18Z"/>
    <path class="cls-2" d="M18,34A16,16,0,1,1,34,18,16,16,0,0,1,18,34ZM18,4A14,14,0,1,0,32,18,14,14,0,0,0,18,4Z"/>
    <path class="cls-3"
          d="M23,16a2,2,0,1,1,2-2A2,2,0,0,1,23,16Zm0-2h0Zm0,0h0Zm0,0h0Zm0,0h0Zm0,0h0Zm0,0h0Zm0,0h0Zm0,0h0Z"/>
    <path class="cls-3"
          d="M13,16a2,2,0,1,1,2-2A2,2,0,0,1,13,16Zm0-2h0Zm0,0h0Zm0,0h0Zm0,0h0Zm0,0h0Zm0,0h0Zm0,0h0Zm0,0h0Z"/>
  </g>
</svg>
