<svg xmlns="http://www.w3.org/2000/svg" viewBox="0 0 36 36">
  <defs>
    <style>.cls-1 {
      fill: #d6dbe1;
    }

    .cls-2 {
      fill: #322f56;
    }

    .cls-3 {
      fill: #66f;
    }</style>
  </defs>
  <title/>
  <g id="angry">
    <path class="cls-1"
          d="M6,18A15,15,0,0,1,19.5,3.08,14.76,14.76,0,0,0,18,3a15,15,0,0,0,0,30,14.76,14.76,0,0,0,1.5-.08A15,15,0,0,1,6,18Z"/>
    <path class="cls-2" d="M18,34A16,16,0,1,1,34,18,16,16,0,0,1,18,34ZM18,4A14,14,0,1,0,32,18,14,14,0,0,0,18,4Z"/>
    <path class="cls-2"
          d="M18,21a6.62,6.62,0,0,0-5.87,3.46,1,1,0,1,0,1.74,1,4.72,4.72,0,0,1,8.26,0,1,1,0,0,0,.87.51,1.07,1.07,0,0,0,.49-.12,1,1,0,0,0,.38-1.36A6.62,6.62,0,0,0,18,21Z"/>
    <path class="cls-3"
          d="M26.62,12.82l-.19-.13a3.87,3.87,0,0,0-5.86,2.16,1.31,1.31,0,0,0-.09.28h0s0,0,0,0A1.51,1.51,0,0,0,21.94,17a1.52,1.52,0,0,0,.74-.2,1.48,1.48,0,0,0,.7-.92,1.44,1.44,0,0,0-.15-1.13,1.25,1.25,0,0,0-.16-.22,1.83,1.83,0,0,1,2.27-.14l.19.12a1,1,0,0,0,1.09-1.67Z"/>
    <path class="cls-3"
          d="M15.52,15.14h0a1.83,1.83,0,0,0-.08-.25,3.87,3.87,0,0,0-5.87-2.19l-.19.13a1,1,0,0,0,1.09,1.67l.2-.13a1.83,1.83,0,0,1,2.26.15,1.25,1.25,0,0,0-.16.22,1.44,1.44,0,0,0-.15,1.13,1.48,1.48,0,0,0,.7.92,1.52,1.52,0,0,0,.74.2,1.49,1.49,0,0,0,1.3-.75A1.45,1.45,0,0,0,15.52,15.14Z"/>
  </g>
</svg>
